<svg xmlns="http://www.w3.org/2000/svg" width="40" height="40" viewBox="0 0 40 40">
  <g id="Group_6" data-name="Group 6" transform="translate(-49 -663)">
    <g id="Rectangle_95" data-name="Rectangle 95" transform="translate(49 663)" fill="none" stroke="#fff" stroke-width="2" opacity="0.605">
      <rect width="40" height="40" stroke="none"/>
      <rect x="1" y="1" width="38" height="38" fill="none"/>
    </g>
    <g id="Group_2" data-name="Group 2" transform="translate(-748 110.569)" opacity="0.6">
      <path id="Path_253" data-name="Path 253" d="M809.5,567.369v-4.2a.591.591,0,0,1,.044-.3.874.874,0,0,1,.311-.144l.2-.044v4.686h.8v-4.775h.511v4.775h.8v-4.8h10.5a3.617,3.617,0,0,1,1.854.5,3.933,3.933,0,0,1,1.377,1.344,3.566,3.566,0,0,1,.544,1.821q.022.555.022,1.332-.022,1.644-.022,1.354h-5.952a.382.382,0,0,1-.311-.133,5.116,5.116,0,0,0-2.2-1.2,4.794,4.794,0,0,0-2.443.012,5.2,5.2,0,0,0-2.2,1.21.319.319,0,0,1-.222.111h-5.885l-.111-.022v-.844q-.023.266-.022-1.022a9.851,9.851,0,0,1,.044-1.022,3.6,3.6,0,0,1,1.488-2.687l.089-.022v4.064h.777Zm11.326,2.154h5.619v8.727a3.65,3.65,0,0,1-.511,1.888,3.752,3.752,0,0,1-1.377,1.366,3.712,3.712,0,0,1-1.888.5H810.9a3.5,3.5,0,0,1-1.888-.489,3.919,3.919,0,0,1-1.388-1.376,3.588,3.588,0,0,1-.522-1.888v-8.705h5.619a4.888,4.888,0,0,0-.622,4.486,5.048,5.048,0,0,0,3.986,3.253,5.012,5.012,0,0,0,2.121-.167,4.852,4.852,0,0,0,1.865-1.044,4.716,4.716,0,0,0,1.244-1.777,5,5,0,0,0,.378-2.309A5.38,5.38,0,0,0,820.827,569.523Zm-4.042,6.662a3.873,3.873,0,0,1-1.932-.5,3.673,3.673,0,0,1-1.4-1.376,3.825,3.825,0,0,1,0-3.819,3.839,3.839,0,0,1,1.4-1.4,3.729,3.729,0,0,1,1.921-.521,3.672,3.672,0,0,1,1.91.521,3.873,3.873,0,0,1,1.388,1.4,3.785,3.785,0,0,1-3.287,5.7Zm2.8-3.8a2.841,2.841,0,0,0-1.4-2.443,2.823,2.823,0,0,0-2.82,0,2.821,2.821,0,0,0-1.022,1.022,2.823,2.823,0,0,0,0,2.82,2.89,2.89,0,0,0,1.022,1.033,2.677,2.677,0,0,0,1.41.389,2.736,2.736,0,0,0,1.41-.378,2.812,2.812,0,0,0,1.022-1.022A2.757,2.757,0,0,0,819.584,572.388Zm5.108-6.551v-1.022a.615.615,0,0,0-.167-.455.586.586,0,0,0-.433-.167q-1.022-.022-2.065,0a.558.558,0,0,0-.444.177.683.683,0,0,0-.156.466v2.044a.613.613,0,0,0,.167.455.586.586,0,0,0,.433.167h2.043a.576.576,0,0,0,.622-.622Z" fill="#fff"/>
    </g>
  </g>
</svg>
