<svg xmlns="http://www.w3.org/2000/svg" width="40" height="40" viewBox="0 0 40 40">
  <g id="Group_5" data-name="Group 5" transform="translate(-49 -589)">
    <g id="Rectangle_96" data-name="Rectangle 96" transform="translate(49 589)" fill="none" stroke="#fff" stroke-width="2" opacity="0.605">
      <rect width="40" height="40" stroke="none"/>
      <rect x="1" y="1" width="38" height="38" fill="none"/>
    </g>
    <g id="Group_3" data-name="Group 3" transform="translate(-894 -541.134)" opacity="0.6">
      <path id="Path_303" data-name="Path 303" d="M971.764,1145.5v.6a13.579,13.579,0,0,1-.862,4.7,14.016,14.016,0,0,1-2.56,4.284,12.7,12.7,0,0,1-4.18,3.136,13.636,13.636,0,0,1-5.721,1.2,13.377,13.377,0,0,1-3.814-.549,12.965,12.965,0,0,1-3.4-1.541q.549.053,1.123.052a9.326,9.326,0,0,0,3.109-.522,9.741,9.741,0,0,0,2.717-1.463,4.691,4.691,0,0,1-2.717-.954,4.524,4.524,0,0,1-1.646-2.312,4.664,4.664,0,0,0,.862.078,4.842,4.842,0,0,0,1.228-.157,4.534,4.534,0,0,1-1.907-.875,4.656,4.656,0,0,1-1.345-1.646,4.89,4.89,0,0,1-.509-2.077v-.078a4.4,4.4,0,0,0,2.142.6,4.726,4.726,0,0,1-1.528-1.685,4.591,4.591,0,0,1-.562-2.234,4.665,4.665,0,0,1,.627-2.351,13.4,13.4,0,0,0,9.666,4.911,5.434,5.434,0,0,1-.1-1.071,4.571,4.571,0,0,1,.627-2.351,4.734,4.734,0,0,1,1.711-1.711,4.52,4.52,0,0,1,2.338-.64,4.651,4.651,0,0,1,3.422,1.49,9.124,9.124,0,0,0,2.978-1.149,4.542,4.542,0,0,1-.8,1.5,4.824,4.824,0,0,1-1.267,1.11,9.533,9.533,0,0,0,2.717-.758A9.819,9.819,0,0,1,971.764,1145.5Z" transform="translate(0)" fill="#fff"/>
    </g>
  </g>
</svg>
