<svg xmlns="http://www.w3.org/2000/svg" width="36.579" height="42.675" viewBox="0 0 36.579 42.675">
  <path id="ic_local_mall_24px" d="M35.514,11.161H31.45a10.161,10.161,0,1,0-20.321,0H7.064A4.059,4.059,0,0,0,3.02,15.225L3,39.611a4.076,4.076,0,0,0,4.064,4.064h28.45a4.076,4.076,0,0,0,4.064-4.064V15.225A4.076,4.076,0,0,0,35.514,11.161Zm-14.225-6.1a6.088,6.088,0,0,1,6.1,6.1H15.193A6.088,6.088,0,0,1,21.289,5.064Zm0,20.321A10.164,10.164,0,0,1,11.129,15.225h4.064a6.1,6.1,0,1,0,12.193,0H31.45A10.164,10.164,0,0,1,21.289,25.386Z" transform="translate(-3 -1)" fill="#dc0017"/>
</svg>
